<svg width="45" height="57" viewBox="0 0 45 57" xmlns="http://www.w3.org/2000/svg"><path d="M20.584 57c-4.698 0-9.732-1.704-13.465-4.559C3.872 49.958 0 45.397 0 37.776c0-5.94 2.446-13.767 6.544-20.938 1.836-3.213 3.825-5.965 5.752-7.96 2.12-2.193 3.991-3.305 5.565-3.305.712 0 1.328.226 1.78.654.284.27.495.616.612.989C23 3.886 26.19.895 28.786.895c2.145 0 2.943 1.56 2.983 2.942C33.909 1.637 36.134 0 38.016 0c2.371 0 3.451 1.531 3.451 2.954 0 .884-.194 1.511-.564 2.099.31-.059.618-.08.943-.08C43.644 4.973 45 6.28 45 8.014c0 1.576-.969 2.859-2.574 4.985-2.134 2.828-5.36 7.101-8.921 15.484-.53 1.246-1.825 1.553-2.86 1.425-4.854-.602-9.657.605-12.848 3.227-1.987 1.633-3.081 3.66-3.081 5.71 0 5.084 4.592 6.887 8.525 6.887 4.241 0 7.312-1.983 7.312-3.32 0-.37-.076-.615-.224-.73-.393-.301-1.591-.077-2.75.14-2.119.395-4.755.888-7.124-.375-1.038-.553-1.694-1.304-1.95-2.231-.33-1.199.137-2.3.326-2.592.756-1.16 1.331-1.237 2.206-1.267.365-.012.778-.026 1.36-.158.447-.1 1.254-.344 2.275-.651 3.162-.951 8.455-2.544 11.894-2.544 3.871 0 5.897 3.91 5.897 7.772 0 2.588-1.234 6.928-4.712 10.643C34.94 53.42 29.68 57 20.584 57zM17.83 6.588C12.684 6.588 1 24.726 1 37.8c0 7.22 3.667 11.528 6.744 13.87C11.302 54.382 16.098 56 20.57 56c8.727 0 13.744-3.389 16.417-6.232 3.29-3.5 4.458-7.553 4.458-9.961 0-3.338-1.643-6.716-4.783-6.716-3.281 0-8.503 1.565-11.623 2.5-1.051.315-1.88.563-2.372.674-.7.158-1.22.175-1.599.188-.663.022-.801.027-1.277.755-.004.006-.461.844-.19 1.786.18.629.654 1.15 1.41 1.552 2.01 1.068 4.431.617 6.377.255 1.625-.303 2.908-.542 3.725.085.436.333.648.845.648 1.565 0 2.08-3.642 4.406-8.516 4.406-4.847 0-9.738-2.469-9.738-7.984 0-2.37 1.242-4.69 3.496-6.535 3.46-2.831 8.637-4.137 13.849-3.495.38.048 1.302.067 1.655-.76 3.636-8.523 6.932-12.872 9.113-15.75C43.105 10.378 44 9.196 44 7.959c0-1.124-.87-1.971-2.021-1.971-1.018 0-1.91.18-4.116 2.511-2.078 2.352-5.16 6.43-9.395 14.598a.596.596 0 01-.771.25.524.524 0 01-.268-.72c4.267-8.227 7.392-12.374 9.51-14.777a.615.615 0 01.03-.034l.007-.007c.67-.757 1.237-1.339 1.707-1.821 1.28-1.314 1.76-1.805 1.76-3.103 0-.87-.608-1.884-2.321-1.884-5.128 0-15.697 16.824-17.23 21.5-.093.285-.417.445-.72.357-.305-.086-.477-.388-.383-.672.76-2.32 3.742-7.746 7.415-12.808a65.37 65.37 0 011.971-2.585c1.023-1.346 1.505-2.281 1.505-2.91 0-.597-.18-1.985-1.851-1.985-2.116 0-5.495 2.915-9.349 8.04a13.691 13.691 0 01-.244.328c-.15.202-.3.406-.45.613-3.544 4.886-6.523 10.303-7.25 12.52-.094.284-.416.444-.721.357-.305-.087-.476-.389-.383-.673.752-2.291 3.794-7.84 7.398-12.808.223-.307.452-.618.687-.93.469-.652.666-1.1.67-1.503a1.28 1.28 0 00-.387-.917c-.236-.223-.563-.336-.971-.336z" fill="#FFF" fill-rule="nonzero"/></svg>